<svg xmlns="http://www.w3.org/2000/svg" viewBox="0 0 64 64" fill="none">
  <path d="M7.5 39.2A26 26 0 0 1 22.2 11.4" stroke="#7ddfd0" stroke-width="4.8" stroke-linecap="round"/>
  <path d="M42 11.3A26 26 0 0 1 56.5 39.2" stroke="#14b8a6" stroke-width="4.8" stroke-linecap="round"/>
  <path d="M13.5 50.4A26 26 0 0 0 21.2 56.4" stroke="#2dd4bf" stroke-width="4.8" stroke-linecap="round"/>
  <path d="M42.8 56.4A26 26 0 0 0 50.5 50.4" stroke="#2dd4bf" stroke-width="4.8" stroke-linecap="round"/>
  <circle cx="32" cy="7.8" r="7.1" fill="#2dd4bf" stroke="#0f766e" stroke-width="1.2"/>
  <circle cx="7.8" cy="47" r="7.1" fill="#7ddfd0" stroke="#0f766e" stroke-width="1.2"/>
  <circle cx="56.2" cy="47" r="7.1" fill="#7ddfd0" stroke="#0f766e" stroke-width="1.2"/>
  <text x="32" y="38.5" text-anchor="middle" font-family="Inter, ui-sans-serif, system-ui, sans-serif" font-size="23" font-weight="800" letter-spacing="0" fill="#ffffff">TS</text>
  <rect x="24.5" y="52" width="4.5" height="9" rx="1.4" fill="#5eead4"/>
  <rect x="31" y="47.5" width="4.5" height="13.5" rx="1.4" fill="#7ddfd0"/>
  <rect x="37.5" y="42.5" width="4.5" height="18.5" rx="1.4" fill="#2dd4bf"/>
</svg>
